HIERARCHY
ROOT Hips
{
	OFFSET -0.179506 -22.333345 2.821913
	CHANNELS 6 Xposition Yposition Zposition Zrotation Yrotation Xrotation 
	JOINT LeftUpLeg
	{
		OFFSET 6.951974 -9.140623 -0.681533
		CHANNELS 3 Zrotation Yrotation Xrotation
		JOINT LeftLeg
		{
			OFFSET 3.427654 -37.519855 -0.449580
			CHANNELS 3 Zrotation Yrotation Xrotation
			JOINT LeftFoot
			{
				OFFSET -1.359570 -39.796059 -4.369333
				CHANNELS 3 Zrotation Yrotation Xrotation
				JOINT LeftToe
				{
					OFFSET 2.635814 -5.579078 11.928840
					CHANNELS 3 Zrotation Yrotation Xrotation
					End Site
					{
						OFFSET 0.000000 0.000000 0.000000
					}
				}
			}
		}
	}
	JOINT RightUpLeg
	{
		OFFSET -6.767048 -9.052170 -0.431982
		CHANNELS 3 Zrotation Yrotation Xrotation
		JOINT RightLeg
		{
			OFFSET -3.829005 -38.256897 -0.885003
			CHANNELS 3 Zrotation Yrotation Xrotation
			JOINT RightFoot
			{
				OFFSET 1.577377 -39.841461 -4.231180
				CHANNELS 3 Zrotation Yrotation Xrotation
				JOINT RightToe
				{
					OFFSET -2.537174 -4.814398 12.334795
					CHANNELS 3 Zrotation Yrotation Xrotation
					End Site
					{
						OFFSET 0.000000 0.000000 0.000000
					}
				}
			}
		}
	}
	JOINT Spine
	{
		OFFSET -0.253288 10.896323 -2.669631
		CHANNELS 3 Zrotation Yrotation Xrotation
		JOINT Spine1
		{
			OFFSET 0.548704 13.518043 0.109247
			CHANNELS 3 Zrotation Yrotation Xrotation
			JOINT Spine2
			{
				OFFSET 0.145701 5.292222 2.542457
				CHANNELS 3 Zrotation Yrotation Xrotation
				JOINT Neck
				{
					OFFSET -0.277840 21.387037 -4.285703
					CHANNELS 3 Zrotation Yrotation Xrotation
					JOINT Head
					{
						OFFSET 0.515184 6.496960 5.134897
						CHANNELS 3 Zrotation Yrotation Xrotation
						End Site
						{
							OFFSET 0.000000 0.000000 0.000000
						}
					}
				}
				JOINT LeftShoulder
				{
					OFFSET 7.884473 12.174932 -3.408961
					CHANNELS 3 Zrotation Yrotation Xrotation
					JOINT LeftArm
					{
						OFFSET 9.097692 3.046888 -0.886815
						CHANNELS 3 Zrotation Yrotation Xrotation
						JOINT LeftForeArm
						{
							OFFSET 25.961220 -1.277207 -2.745643
							CHANNELS 3 Zrotation Yrotation Xrotation
							JOINT LeftHand
							{
								OFFSET 24.923361 0.898606 -0.117091
								CHANNELS 3 Zrotation Yrotation Xrotation
								End Site
								{
									OFFSET 0.000000 0.000000 0.000000
								}
							}
						}
					}
				}
				JOINT RightShoulder
				{
					OFFSET -8.175920 11.883285 -3.861528
					CHANNELS 3 Zrotation Yrotation Xrotation
					JOINT RightArm
					{
						OFFSET -9.601238 3.255117 -0.914307
						CHANNELS 3 Zrotation Yrotation Xrotation
						JOINT RightForeArm
						{
							OFFSET -25.374195 -1.332924 -2.140099
							CHANNELS 3 Zrotation Yrotation Xrotation
							JOINT RightHand
							{
								OFFSET -25.529810 0.777228 -0.555919
								CHANNELS 3 Zrotation Yrotation Xrotation
								End Site
								{
									OFFSET 0.000000 0.000000 0.000000
								}
							}
						}
					}
				}
			}
		}
	}
}
MOTION
Frames: 7
Frame Time: 0.033333
11.715192 -107.906464 89.622810 -113.323342 2.436931 84.564269 10.253394 5.604425 -5.705129 -4.718463 5.665371 25.879531 1.308402 11.274583 -24.476543 nan nan nan -13.984764 -11.863596 -10.224507 3.397514 -15.306608 17.937968 6.053423 -5.716686 -3.616778 nan nan nan -4.968155 3.247495 5.459262 7.567456 -4.800041 7.297988 1.693152 0.020441 -2.967996 0.893206 -21.052542 16.266149 6.991496 -22.404304 10.335056 -13.164571 -8.626001 1.967568 -70.970399 -43.420034 35.728905 108.041299 -79.405322 -90.413753 -8.461750 -25.431937 -13.884958 16.423455 4.264717 -5.307286 35.174799 12.903394 -5.935735 -71.029069 45.372143 -61.092619 9.515260 8.439430 -6.845974 
11.721779 -107.908836 89.626389 -113.264942 2.444488 84.626173 10.178845 5.622151 -5.857894 -4.524747 5.758475 26.026190 1.392514 11.108554 -24.467192 nan nan nan -13.987221 -11.814264 -10.275982 3.360005 -15.503886 17.989533 5.942076 -5.545251 -3.554316 nan nan nan -5.000384 3.302423 5.252140 7.650799 -4.890682 7.609689 1.706946 -0.048610 -3.105550 0.987275 -20.888053 16.308226 6.930626 -22.471183 10.090129 -13.244954 -8.659097 1.878249 -70.803271 -43.376300 35.596954 107.980537 -79.361212 -90.531416 -9.028660 -25.594332 -13.332581 16.274800 4.338108 -5.370383 35.278514 12.855495 -5.858283 -71.050398 45.199953 -61.298346 9.998886 8.705863 -7.185043 
11.720456 -107.913940 89.632317 -113.241043 2.431179 84.638236 10.146216 5.629884 -5.894400 -4.477035 5.783545 26.062768 1.421744 11.048959 -24.481323 nan nan nan -14.003373 -11.796865 -10.275479 3.345663 -15.530916 18.003465 5.877642 -5.498976 -3.554153 nan nan nan -5.034596 3.336043 5.215731 7.690368 -4.918232 7.672335 1.720022 -0.077339 -3.122889 1.027939 -20.866260 16.279772 6.898405 -22.487782 10.044564 -13.249609 -8.669386 1.854399 -70.787301 -43.387162 35.596511 107.861140 -79.344382 -90.432500 -9.218843 -25.653676 -13.180495 16.278898 4.335202 -5.424145 35.269489 12.855274 -5.802177 -71.085760 45.149795 -61.292427 10.170095 8.780146 -7.198938 
11.719925 -107.911972 89.632721 -113.261520 2.448614 84.655319 10.173358 5.646059 -5.893831 -4.449298 5.831456 26.058153 1.419012 11.003073 -24.507037 nan nan nan -13.978194 -11.781553 -10.305384 3.338861 -15.609256 18.019501 5.895501 -5.478548 -3.569412 nan nan nan -5.040611 3.344951 5.203229 7.721023 -4.900528 7.652631 1.737928 -0.091541 -3.093933 1.095362 -20.861892 16.236634 6.847817 -22.517736 10.038984 -13.239170 -8.611249 1.892511 -71.239881 -43.264215 35.744770 108.060064 -79.242004 -90.567877 -9.437698 -25.630756 -12.999736 16.253673 4.314191 -5.418972 35.325857 12.902146 -5.752089 -71.190442 45.103790 -61.223453 10.232635 8.775476 -7.137462 
11.725165 -107.895554 89.633347 -113.287881 2.493653 84.584339 10.247670 5.696293 -5.798838 -4.410610 5.837380 26.049403 1.503951 10.948654 -24.505515 nan nan nan -13.929991 -11.717153 -10.187713 3.321097 -15.717761 17.977316 6.035160 -5.352720 -3.682977 nan nan nan -5.166001 3.370139 5.162397 7.816039 -4.892827 7.755609 1.884116 -0.044917 -2.925922 1.379804 -20.580777 15.938442 6.941951 -22.712649 9.869018 -13.221529 -8.527370 1.892955 -71.754387 -43.555705 35.612988 107.231499 -79.520653 -90.914301 -10.325572 -25.659231 -11.766995 16.220179 4.423931 -5.217675 35.162979 12.975504 -6.228743 -71.277277 45.180228 -61.528172 10.587289 8.626272 -6.016018 
11.739623 -107.896271 89.635323 -113.300268 2.528125 84.468238 10.286749 5.763281 -5.701545 -4.383507 5.707259 26.066791 1.713328 10.985379 -24.522385 nan nan nan -13.892237 -11.616369 -10.030417 3.280641 -15.623794 17.980914 6.110098 -5.250131 -3.747456 nan nan nan -5.376443 3.376858 4.985583 7.942980 -4.942802 8.190316 2.139635 0.109282 -2.743435 1.664153 -20.263595 15.370228 7.030394 -22.693832 9.672755 -13.270189 -8.782964 1.750893 -71.770887 -43.612647 35.328986 107.115717 -79.724892 -91.180361 -9.989341 -25.547228 -11.270402 16.147124 4.845772 -5.012825 34.636676 12.776298 -6.931467 -71.185525 45.350184 -61.913264 10.369036 8.528611 -5.000942 
11.743230 -107.900810 89.634911 -113.290430 2.504768 84.425225 10.248473 5.766511 -5.674210 -4.388048 5.607224 26.070314 1.851984 11.101279 -24.536038 nan nan nan -13.925541 -11.631390 -10.011332 3.258288 -15.489348 18.048198 6.049687 -5.248606 -3.693781 nan nan nan -5.486172 3.357495 4.843953 7.977292 -5.020856 8.567670 2.215662 0.222624 -2.857846 1.654501 -20.091873 15.099316 7.071394 -22.420400 9.912414 -13.376157 -9.095864 1.761801 -71.056125 -43.743408 35.000855 106.733312 -79.759581 -90.791986 -9.484319 -25.586665 -11.688170 16.182385 5.082777 -4.953724 34.346715 12.577395 -7.139110 -71.084208 45.368289 -62.072837 10.341454 8.531074 -5.066818 
